<svg xmlns="http://www.w3.org/2000/svg" version="1.1" width="1120" height="610">
<circle cx="741.25" cy="30.0" r="14.0" stroke-width="3" stroke="black" fill="white"/>
<text x="741.25" y="30.0" font-size="20" style="text-anchor: middle;dominant-baseline: central;">77</text>
<line x1="727.4699" y1="32.471764" x2="476.28006" y2="77.52824" style="stroke:black;stroke-width:3"/>
<circle cx="462.5" cy="80.0" r="14.0" stroke-width="3" stroke="black" fill="white"/>
<text x="462.5" y="80.0" font-size="20" style="text-anchor: middle;dominant-baseline: central;">36</text>
<line x1="448.71802" y1="82.46107" x2="196.28198" y2="127.53893" style="stroke:black;stroke-width:3"/>
<circle cx="182.5" cy="130.0" r="14.0" stroke-width="3" stroke="black" fill="white"/>
<text x="182.5" y="130.0" font-size="20" style="text-anchor: middle;dominant-baseline: central;">9</text>
<line x1="170.18411" y1="136.65724" x2="102.31589" y2="173.34276" style="stroke:black;stroke-width:3"/>
<circle cx="90.0" cy="180.0" r="14.0" stroke-width="3" stroke="black" fill="white"/>
<text x="90.0" y="180.0" font-size="20" style="text-anchor: middle;dominant-baseline: central;">5</text>
<line x1="84.80053" y1="192.99867" x2="75.19947" y2="217.00133" style="stroke:black;stroke-width:3"/>
<circle cx="70.0" cy="230.0" r="14.0" stroke-width="3" stroke="black" fill="white"/>
<text x="70.0" y="230.0" font-size="20" style="text-anchor: middle;dominant-baseline: central;">4</text>
<line x1="64.80053" y1="242.99867" x2="55.19947" y2="267.0013" style="stroke:black;stroke-width:3"/>
<circle cx="50.0" cy="280.0" r="14.0" stroke-width="3" stroke="black" fill="white"/>
<text x="50.0" y="280.0" font-size="20" style="text-anchor: middle;dominant-baseline: central;">1</text>
<line x1="44.80053" y1="292.9987" x2="35.19947" y2="317.0013" style="stroke:black;stroke-width:3"/>
<circle cx="30.0" cy="330.0" r="14.0" stroke-width="3" stroke="black" fill="white"/>
<text x="30.0" y="330.0" font-size="20" style="text-anchor: middle;dominant-baseline: central;">0</text>
<line x1="55.19947" y1="292.9987" x2="64.80053" y2="317.0013" style="stroke:black;stroke-width:3"/>
<circle cx="70.0" cy="330.0" r="14.0" stroke-width="3" stroke="black" fill="white"/>
<text x="70.0" y="330.0" font-size="20" style="text-anchor: middle;dominant-baseline: central;">2</text>
<line x1="75.19947" y1="342.9987" x2="84.80053" y2="367.0013" style="stroke:black;stroke-width:3"/>
<circle cx="90.0" cy="380.0" r="14.0" stroke-width="3" stroke="black" fill="white"/>
<text x="90.0" y="380.0" font-size="20" style="text-anchor: middle;dominant-baseline: central;">3</text>
<line x1="95.19947" y1="192.99867" x2="104.80053" y2="217.00133" style="stroke:black;stroke-width:3"/>
<circle cx="110.0" cy="230.0" r="14.0" stroke-width="3" stroke="black" fill="white"/>
<text x="110.0" y="230.0" font-size="20" style="text-anchor: middle;dominant-baseline: central;">7</text>
<line x1="104.80053" y1="242.99867" x2="95.19947" y2="267.0013" style="stroke:black;stroke-width:3"/>
<circle cx="90.0" cy="280.0" r="14.0" stroke-width="3" stroke="black" fill="white"/>
<text x="90.0" y="280.0" font-size="20" style="text-anchor: middle;dominant-baseline: central;">6</text>
<line x1="115.19947" y1="242.99867" x2="124.80053" y2="267.0013" style="stroke:black;stroke-width:3"/>
<circle cx="130.0" cy="280.0" r="14.0" stroke-width="3" stroke="black" fill="white"/>
<text x="130.0" y="280.0" font-size="20" style="text-anchor: middle;dominant-baseline: central;">8</text>
<line x1="194.81589" y1="136.65724" x2="262.6841" y2="173.34276" style="stroke:black;stroke-width:3"/>
<circle cx="275.0" cy="180.0" r="14.0" stroke-width="3" stroke="black" fill="white"/>
<text x="275.0" y="180.0" font-size="20" style="text-anchor: middle;dominant-baseline: central;">14</text>
<line x1="262.93292" y1="187.09828" x2="202.06708" y2="222.90172" style="stroke:black;stroke-width:3"/>
<circle cx="190.0" cy="230.0" r="14.0" stroke-width="3" stroke="black" fill="white"/>
<text x="190.0" y="230.0" font-size="20" style="text-anchor: middle;dominant-baseline: central;">11</text>
<line x1="184.80054" y1="242.99867" x2="175.19946" y2="267.0013" style="stroke:black;stroke-width:3"/>
<circle cx="170.0" cy="280.0" r="14.0" stroke-width="3" stroke="black" fill="white"/>
<text x="170.0" y="280.0" font-size="20" style="text-anchor: middle;dominant-baseline: central;">10</text>
<line x1="195.19946" y1="242.99867" x2="204.80054" y2="267.0013" style="stroke:black;stroke-width:3"/>
<circle cx="210.0" cy="280.0" r="14.0" stroke-width="3" stroke="black" fill="white"/>
<text x="210.0" y="280.0" font-size="20" style="text-anchor: middle;dominant-baseline: central;">12</text>
<line x1="215.19946" y1="292.9987" x2="224.80054" y2="317.0013" style="stroke:black;stroke-width:3"/>
<circle cx="230.0" cy="330.0" r="14.0" stroke-width="3" stroke="black" fill="white"/>
<text x="230.0" y="330.0" font-size="20" style="text-anchor: middle;dominant-baseline: central;">13</text>
<line x1="287.06708" y1="187.09828" x2="347.93292" y2="222.90172" style="stroke:black;stroke-width:3"/>
<circle cx="360.0" cy="230.0" r="14.0" stroke-width="3" stroke="black" fill="white"/>
<text x="360.0" y="230.0" font-size="20" style="text-anchor: middle;dominant-baseline: central;">35</text>
<line x1="354.80054" y1="242.99867" x2="345.19946" y2="267.0013" style="stroke:black;stroke-width:3"/>
<circle cx="340.0" cy="280.0" r="14.0" stroke-width="3" stroke="black" fill="white"/>
<text x="340.0" y="280.0" font-size="20" style="text-anchor: middle;dominant-baseline: central;">26</text>
<line x1="328.60773" y1="288.13733" x2="281.39227" y2="321.86267" style="stroke:black;stroke-width:3"/>
<circle cx="270.0" cy="330.0" r="14.0" stroke-width="3" stroke="black" fill="white"/>
<text x="270.0" y="330.0" font-size="20" style="text-anchor: middle;dominant-baseline: central;">22</text>
<line x1="264.80054" y1="342.9987" x2="255.19946" y2="367.0013" style="stroke:black;stroke-width:3"/>
<circle cx="250.0" cy="380.0" r="14.0" stroke-width="3" stroke="black" fill="white"/>
<text x="250.0" y="380.0" font-size="20" style="text-anchor: middle;dominant-baseline: central;">21</text>
<line x1="244.80054" y1="392.9987" x2="235.19946" y2="417.0013" style="stroke:black;stroke-width:3"/>
<circle cx="230.0" cy="430.0" r="14.0" stroke-width="3" stroke="black" fill="white"/>
<text x="230.0" y="430.0" font-size="20" style="text-anchor: middle;dominant-baseline: central;">19</text>
<line x1="224.80054" y1="442.9987" x2="215.19946" y2="467.0013" style="stroke:black;stroke-width:3"/>
<circle cx="210.0" cy="480.0" r="14.0" stroke-width="3" stroke="black" fill="white"/>
<text x="210.0" y="480.0" font-size="20" style="text-anchor: middle;dominant-baseline: central;">18</text>
<line x1="204.80054" y1="492.9987" x2="195.19946" y2="517.00134" style="stroke:black;stroke-width:3"/>
<circle cx="190.0" cy="530.0" r="14.0" stroke-width="3" stroke="black" fill="white"/>
<text x="190.0" y="530.0" font-size="20" style="text-anchor: middle;dominant-baseline: central;">16</text>
<line x1="184.80054" y1="542.99866" x2="175.19946" y2="567.00134" style="stroke:black;stroke-width:3"/>
<circle cx="170.0" cy="580.0" r="14.0" stroke-width="3" stroke="black" fill="white"/>
<text x="170.0" y="580.0" font-size="20" style="text-anchor: middle;dominant-baseline: central;">15</text>
<line x1="195.19946" y1="542.99866" x2="204.80054" y2="567.00134" style="stroke:black;stroke-width:3"/>
<circle cx="210.0" cy="580.0" r="14.0" stroke-width="3" stroke="black" fill="white"/>
<text x="210.0" y="580.0" font-size="20" style="text-anchor: middle;dominant-baseline: central;">17</text>
<line x1="235.19946" y1="442.9987" x2="244.80054" y2="467.0013" style="stroke:black;stroke-width:3"/>
<circle cx="250.0" cy="480.0" r="14.0" stroke-width="3" stroke="black" fill="white"/>
<text x="250.0" y="480.0" font-size="20" style="text-anchor: middle;dominant-baseline: central;">20</text>
<line x1="275.19946" y1="342.9987" x2="284.80054" y2="367.0013" style="stroke:black;stroke-width:3"/>
<circle cx="290.0" cy="380.0" r="14.0" stroke-width="3" stroke="black" fill="white"/>
<text x="290.0" y="380.0" font-size="20" style="text-anchor: middle;dominant-baseline: central;">23</text>
<line x1="295.19946" y1="392.9987" x2="304.80054" y2="417.0013" style="stroke:black;stroke-width:3"/>
<circle cx="310.0" cy="430.0" r="14.0" stroke-width="3" stroke="black" fill="white"/>
<text x="310.0" y="430.0" font-size="20" style="text-anchor: middle;dominant-baseline: central;">24</text>
<line x1="315.19946" y1="442.9987" x2="324.80054" y2="467.0013" style="stroke:black;stroke-width:3"/>
<circle cx="330.0" cy="480.0" r="14.0" stroke-width="3" stroke="black" fill="white"/>
<text x="330.0" y="480.0" font-size="20" style="text-anchor: middle;dominant-baseline: central;">25</text>
<line x1="351.39227" y1="288.13733" x2="398.60773" y2="321.86267" style="stroke:black;stroke-width:3"/>
<circle cx="410.0" cy="330.0" r="14.0" stroke-width="3" stroke="black" fill="white"/>
<text x="410.0" y="330.0" font-size="20" style="text-anchor: middle;dominant-baseline: central;">30</text>
<line x1="401.25427" y1="340.93216" x2="378.74573" y2="369.06784" style="stroke:black;stroke-width:3"/>
<circle cx="370.0" cy="380.0" r="14.0" stroke-width="3" stroke="black" fill="white"/>
<text x="370.0" y="380.0" font-size="20" style="text-anchor: middle;dominant-baseline: central;">28</text>
<line x1="364.80054" y1="392.9987" x2="355.19946" y2="417.0013" style="stroke:black;stroke-width:3"/>
<circle cx="350.0" cy="430.0" r="14.0" stroke-width="3" stroke="black" fill="white"/>
<text x="350.0" y="430.0" font-size="20" style="text-anchor: middle;dominant-baseline: central;">27</text>
<line x1="375.19946" y1="392.9987" x2="384.80054" y2="417.0013" style="stroke:black;stroke-width:3"/>
<circle cx="390.0" cy="430.0" r="14.0" stroke-width="3" stroke="black" fill="white"/>
<text x="390.0" y="430.0" font-size="20" style="text-anchor: middle;dominant-baseline: central;">29</text>
<line x1="418.74573" y1="340.93216" x2="441.25427" y2="369.06784" style="stroke:black;stroke-width:3"/>
<circle cx="450.0" cy="380.0" r="14.0" stroke-width="3" stroke="black" fill="white"/>
<text x="450.0" y="380.0" font-size="20" style="text-anchor: middle;dominant-baseline: central;">34</text>
<line x1="444.80054" y1="392.9987" x2="435.19946" y2="417.0013" style="stroke:black;stroke-width:3"/>
<circle cx="430.0" cy="430.0" r="14.0" stroke-width="3" stroke="black" fill="white"/>
<text x="430.0" y="430.0" font-size="20" style="text-anchor: middle;dominant-baseline: central;">31</text>
<line x1="435.19946" y1="442.9987" x2="444.80054" y2="467.0013" style="stroke:black;stroke-width:3"/>
<circle cx="450.0" cy="480.0" r="14.0" stroke-width="3" stroke="black" fill="white"/>
<text x="450.0" y="480.0" font-size="20" style="text-anchor: middle;dominant-baseline: central;">33</text>
<line x1="444.80054" y1="492.9987" x2="435.19946" y2="517.00134" style="stroke:black;stroke-width:3"/>
<circle cx="430.0" cy="530.0" r="14.0" stroke-width="3" stroke="black" fill="white"/>
<text x="430.0" y="530.0" font-size="20" style="text-anchor: middle;dominant-baseline: central;">32</text>
<line x1="476.28198" y1="82.46107" x2="728.718" y2="127.53893" style="stroke:black;stroke-width:3"/>
<circle cx="742.5" cy="130.0" r="14.0" stroke-width="3" stroke="black" fill="white"/>
<text x="742.5" y="130.0" font-size="20" style="text-anchor: middle;dominant-baseline: central;">60</text>
<line x1="730.3446" y1="136.94594" x2="667.1554" y2="173.05406" style="stroke:black;stroke-width:3"/>
<circle cx="655.0" cy="180.0" r="14.0" stroke-width="3" stroke="black" fill="white"/>
<text x="655.0" y="180.0" font-size="20" style="text-anchor: middle;dominant-baseline: central;">54</text>
<line x1="644.64087" y1="189.41742" x2="610.35913" y2="220.58258" style="stroke:black;stroke-width:3"/>
<circle cx="600.0" cy="230.0" r="14.0" stroke-width="3" stroke="black" fill="white"/>
<text x="600.0" y="230.0" font-size="20" style="text-anchor: middle;dominant-baseline: central;">48</text>
<line x1="590.1005" y1="239.89949" x2="559.8995" y2="270.1005" style="stroke:black;stroke-width:3"/>
<circle cx="550.0" cy="280.0" r="14.0" stroke-width="3" stroke="black" fill="white"/>
<text x="550.0" y="280.0" font-size="20" style="text-anchor: middle;dominant-baseline: central;">46</text>
<line x1="544.80054" y1="292.9987" x2="535.19946" y2="317.0013" style="stroke:black;stroke-width:3"/>
<circle cx="530.0" cy="330.0" r="14.0" stroke-width="3" stroke="black" fill="white"/>
<text x="530.0" y="330.0" font-size="20" style="text-anchor: middle;dominant-baseline: central;">40</text>
<line x1="521.2543" y1="340.93216" x2="498.74573" y2="369.06784" style="stroke:black;stroke-width:3"/>
<circle cx="490.0" cy="380.0" r="14.0" stroke-width="3" stroke="black" fill="white"/>
<text x="490.0" y="380.0" font-size="20" style="text-anchor: middle;dominant-baseline: central;">37</text>
<line x1="495.19946" y1="392.9987" x2="504.80054" y2="417.0013" style="stroke:black;stroke-width:3"/>
<circle cx="510.0" cy="430.0" r="14.0" stroke-width="3" stroke="black" fill="white"/>
<text x="510.0" y="430.0" font-size="20" style="text-anchor: middle;dominant-baseline: central;">39</text>
<line x1="504.80054" y1="442.9987" x2="495.19946" y2="467.0013" style="stroke:black;stroke-width:3"/>
<circle cx="490.0" cy="480.0" r="14.0" stroke-width="3" stroke="black" fill="white"/>
<text x="490.0" y="480.0" font-size="20" style="text-anchor: middle;dominant-baseline: central;">38</text>
<line x1="538.7457" y1="340.93216" x2="561.2543" y2="369.06784" style="stroke:black;stroke-width:3"/>
<circle cx="570.0" cy="380.0" r="14.0" stroke-width="3" stroke="black" fill="white"/>
<text x="570.0" y="380.0" font-size="20" style="text-anchor: middle;dominant-baseline: central;">43</text>
<line x1="564.80054" y1="392.9987" x2="555.19946" y2="417.0013" style="stroke:black;stroke-width:3"/>
<circle cx="550.0" cy="430.0" r="14.0" stroke-width="3" stroke="black" fill="white"/>
<text x="550.0" y="430.0" font-size="20" style="text-anchor: middle;dominant-baseline: central;">41</text>
<line x1="575.19946" y1="392.9987" x2="584.80054" y2="417.0013" style="stroke:black;stroke-width:3"/>
<circle cx="590.0" cy="430.0" r="14.0" stroke-width="3" stroke="black" fill="white"/>
<text x="590.0" y="430.0" font-size="20" style="text-anchor: middle;dominant-baseline: central;">45</text>
<line x1="584.80054" y1="442.9987" x2="575.19946" y2="467.0013" style="stroke:black;stroke-width:3"/>
<circle cx="570.0" cy="480.0" r="14.0" stroke-width="3" stroke="black" fill="white"/>
<text x="570.0" y="480.0" font-size="20" style="text-anchor: middle;dominant-baseline: central;">44</text>
<line x1="555.19946" y1="292.9987" x2="564.80054" y2="317.0013" style="stroke:black;stroke-width:3"/>
<circle cx="570.0" cy="330.0" r="14.0" stroke-width="3" stroke="black" fill="white"/>
<text x="570.0" y="330.0" font-size="20" style="text-anchor: middle;dominant-baseline: central;">47</text>
<line x1="609.8995" y1="239.89949" x2="640.1005" y2="270.1005" style="stroke:black;stroke-width:3"/>
<circle cx="650.0" cy="280.0" r="14.0" stroke-width="3" stroke="black" fill="white"/>
<text x="650.0" y="280.0" font-size="20" style="text-anchor: middle;dominant-baseline: central;">53</text>
<line x1="644.80054" y1="292.9987" x2="635.19946" y2="317.0013" style="stroke:black;stroke-width:3"/>
<circle cx="630.0" cy="330.0" r="14.0" stroke-width="3" stroke="black" fill="white"/>
<text x="630.0" y="330.0" font-size="20" style="text-anchor: middle;dominant-baseline: central;">50</text>
<line x1="624.80054" y1="342.9987" x2="615.19946" y2="367.0013" style="stroke:black;stroke-width:3"/>
<circle cx="610.0" cy="380.0" r="14.0" stroke-width="3" stroke="black" fill="white"/>
<text x="610.0" y="380.0" font-size="20" style="text-anchor: middle;dominant-baseline: central;">49</text>
<line x1="635.19946" y1="342.9987" x2="644.80054" y2="367.0013" style="stroke:black;stroke-width:3"/>
<circle cx="650.0" cy="380.0" r="14.0" stroke-width="3" stroke="black" fill="white"/>
<text x="650.0" y="380.0" font-size="20" style="text-anchor: middle;dominant-baseline: central;">52</text>
<line x1="644.80054" y1="392.9987" x2="635.19946" y2="417.0013" style="stroke:black;stroke-width:3"/>
<circle cx="630.0" cy="430.0" r="14.0" stroke-width="3" stroke="black" fill="white"/>
<text x="630.0" y="430.0" font-size="20" style="text-anchor: middle;dominant-baseline: central;">51</text>
<line x1="665.35913" y1="189.41742" x2="699.64087" y2="220.58258" style="stroke:black;stroke-width:3"/>
<circle cx="710.0" cy="230.0" r="14.0" stroke-width="3" stroke="black" fill="white"/>
<text x="710.0" y="230.0" font-size="20" style="text-anchor: middle;dominant-baseline: central;">56</text>
<line x1="704.80054" y1="242.99867" x2="695.19946" y2="267.0013" style="stroke:black;stroke-width:3"/>
<circle cx="690.0" cy="280.0" r="14.0" stroke-width="3" stroke="black" fill="white"/>
<text x="690.0" y="280.0" font-size="20" style="text-anchor: middle;dominant-baseline: central;">55</text>
<line x1="715.19946" y1="242.99867" x2="724.80054" y2="267.0013" style="stroke:black;stroke-width:3"/>
<circle cx="730.0" cy="280.0" r="14.0" stroke-width="3" stroke="black" fill="white"/>
<text x="730.0" y="280.0" font-size="20" style="text-anchor: middle;dominant-baseline: central;">59</text>
<line x1="724.80054" y1="292.9987" x2="715.19946" y2="317.0013" style="stroke:black;stroke-width:3"/>
<circle cx="710.0" cy="330.0" r="14.0" stroke-width="3" stroke="black" fill="white"/>
<text x="710.0" y="330.0" font-size="20" style="text-anchor: middle;dominant-baseline: central;">57</text>
<line x1="715.19946" y1="342.9987" x2="724.80054" y2="367.0013" style="stroke:black;stroke-width:3"/>
<circle cx="730.0" cy="380.0" r="14.0" stroke-width="3" stroke="black" fill="white"/>
<text x="730.0" y="380.0" font-size="20" style="text-anchor: middle;dominant-baseline: central;">58</text>
<line x1="754.6554" y1="136.94594" x2="817.8446" y2="173.05406" style="stroke:black;stroke-width:3"/>
<circle cx="830.0" cy="180.0" r="14.0" stroke-width="3" stroke="black" fill="white"/>
<text x="830.0" y="180.0" font-size="20" style="text-anchor: middle;dominant-baseline: central;">70</text>
<line x1="821.2543" y1="190.93216" x2="798.7457" y2="219.06784" style="stroke:black;stroke-width:3"/>
<circle cx="790.0" cy="230.0" r="14.0" stroke-width="3" stroke="black" fill="white"/>
<text x="790.0" y="230.0" font-size="20" style="text-anchor: middle;dominant-baseline: central;">66</text>
<line x1="784.80054" y1="242.99867" x2="775.19946" y2="267.0013" style="stroke:black;stroke-width:3"/>
<circle cx="770.0" cy="280.0" r="14.0" stroke-width="3" stroke="black" fill="white"/>
<text x="770.0" y="280.0" font-size="20" style="text-anchor: middle;dominant-baseline: central;">62</text>
<line x1="764.80054" y1="292.9987" x2="755.19946" y2="317.0013" style="stroke:black;stroke-width:3"/>
<circle cx="750.0" cy="330.0" r="14.0" stroke-width="3" stroke="black" fill="white"/>
<text x="750.0" y="330.0" font-size="20" style="text-anchor: middle;dominant-baseline: central;">61</text>
<line x1="775.19946" y1="292.9987" x2="784.80054" y2="317.0013" style="stroke:black;stroke-width:3"/>
<circle cx="790.0" cy="330.0" r="14.0" stroke-width="3" stroke="black" fill="white"/>
<text x="790.0" y="330.0" font-size="20" style="text-anchor: middle;dominant-baseline: central;">64</text>
<line x1="784.80054" y1="342.9987" x2="775.19946" y2="367.0013" style="stroke:black;stroke-width:3"/>
<circle cx="770.0" cy="380.0" r="14.0" stroke-width="3" stroke="black" fill="white"/>
<text x="770.0" y="380.0" font-size="20" style="text-anchor: middle;dominant-baseline: central;">63</text>
<line x1="795.19946" y1="342.9987" x2="804.80054" y2="367.0013" style="stroke:black;stroke-width:3"/>
<circle cx="810.0" cy="380.0" r="14.0" stroke-width="3" stroke="black" fill="white"/>
<text x="810.0" y="380.0" font-size="20" style="text-anchor: middle;dominant-baseline: central;">65</text>
<line x1="795.19946" y1="242.99867" x2="804.80054" y2="267.0013" style="stroke:black;stroke-width:3"/>
<circle cx="810.0" cy="280.0" r="14.0" stroke-width="3" stroke="black" fill="white"/>
<text x="810.0" y="280.0" font-size="20" style="text-anchor: middle;dominant-baseline: central;">67</text>
<line x1="815.19946" y1="292.9987" x2="824.80054" y2="317.0013" style="stroke:black;stroke-width:3"/>
<circle cx="830.0" cy="330.0" r="14.0" stroke-width="3" stroke="black" fill="white"/>
<text x="830.0" y="330.0" font-size="20" style="text-anchor: middle;dominant-baseline: central;">69</text>
<line x1="838.7457" y1="190.93216" x2="861.2543" y2="219.06784" style="stroke:black;stroke-width:3"/>
<circle cx="870.0" cy="230.0" r="14.0" stroke-width="3" stroke="black" fill="white"/>
<text x="870.0" y="230.0" font-size="20" style="text-anchor: middle;dominant-baseline: central;">73</text>
<line x1="864.80054" y1="242.99867" x2="855.19946" y2="267.0013" style="stroke:black;stroke-width:3"/>
<circle cx="850.0" cy="280.0" r="14.0" stroke-width="3" stroke="black" fill="white"/>
<text x="850.0" y="280.0" font-size="20" style="text-anchor: middle;dominant-baseline: central;">71</text>
<line x1="875.19946" y1="242.99867" x2="884.80054" y2="267.0013" style="stroke:black;stroke-width:3"/>
<circle cx="890.0" cy="280.0" r="14.0" stroke-width="3" stroke="black" fill="white"/>
<text x="890.0" y="280.0" font-size="20" style="text-anchor: middle;dominant-baseline: central;">75</text>
<line x1="884.80054" y1="292.9987" x2="875.19946" y2="317.0013" style="stroke:black;stroke-width:3"/>
<circle cx="870.0" cy="330.0" r="14.0" stroke-width="3" stroke="black" fill="white"/>
<text x="870.0" y="330.0" font-size="20" style="text-anchor: middle;dominant-baseline: central;">74</text>
<line x1="895.19946" y1="292.9987" x2="904.80054" y2="317.0013" style="stroke:black;stroke-width:3"/>
<circle cx="910.0" cy="330.0" r="14.0" stroke-width="3" stroke="black" fill="white"/>
<text x="910.0" y="330.0" font-size="20" style="text-anchor: middle;dominant-baseline: central;">76</text>
<line x1="755.0301" y1="32.471764" x2="1006.2199" y2="77.52824" style="stroke:black;stroke-width:3"/>
<circle cx="1020.0" cy="80.0" r="14.0" stroke-width="3" stroke="black" fill="white"/>
<text x="1020.0" y="80.0" font-size="20" style="text-anchor: middle;dominant-baseline: central;">87</text>
<line x1="1010.1005" y1="89.8995" x2="979.8995" y2="120.1005" style="stroke:black;stroke-width:3"/>
<circle cx="970.0" cy="130.0" r="14.0" stroke-width="3" stroke="black" fill="white"/>
<text x="970.0" y="130.0" font-size="20" style="text-anchor: middle;dominant-baseline: central;">81</text>
<line x1="961.2543" y1="140.93216" x2="938.7457" y2="169.06784" style="stroke:black;stroke-width:3"/>
<circle cx="930.0" cy="180.0" r="14.0" stroke-width="3" stroke="black" fill="white"/>
<text x="930.0" y="180.0" font-size="20" style="text-anchor: middle;dominant-baseline: central;">78</text>
<line x1="935.19946" y1="192.99867" x2="944.80054" y2="217.00133" style="stroke:black;stroke-width:3"/>
<circle cx="950.0" cy="230.0" r="14.0" stroke-width="3" stroke="black" fill="white"/>
<text x="950.0" y="230.0" font-size="20" style="text-anchor: middle;dominant-baseline: central;">80</text>
<line x1="944.80054" y1="242.99867" x2="935.19946" y2="267.0013" style="stroke:black;stroke-width:3"/>
<circle cx="930.0" cy="280.0" r="14.0" stroke-width="3" stroke="black" fill="white"/>
<text x="930.0" y="280.0" font-size="20" style="text-anchor: middle;dominant-baseline: central;">79</text>
<line x1="978.7457" y1="140.93216" x2="1001.2543" y2="169.06784" style="stroke:black;stroke-width:3"/>
<circle cx="1010.0" cy="180.0" r="14.0" stroke-width="3" stroke="black" fill="white"/>
<text x="1010.0" y="180.0" font-size="20" style="text-anchor: middle;dominant-baseline: central;">85</text>
<line x1="1004.80054" y1="192.99867" x2="995.19946" y2="217.00133" style="stroke:black;stroke-width:3"/>
<circle cx="990.0" cy="230.0" r="14.0" stroke-width="3" stroke="black" fill="white"/>
<text x="990.0" y="230.0" font-size="20" style="text-anchor: middle;dominant-baseline: central;">82</text>
<line x1="995.19946" y1="242.99867" x2="1004.80054" y2="267.0013" style="stroke:black;stroke-width:3"/>
<circle cx="1010.0" cy="280.0" r="14.0" stroke-width="3" stroke="black" fill="white"/>
<text x="1010.0" y="280.0" font-size="20" style="text-anchor: middle;dominant-baseline: central;">84</text>
<line x1="1004.80054" y1="292.9987" x2="995.19946" y2="317.0013" style="stroke:black;stroke-width:3"/>
<circle cx="990.0" cy="330.0" r="14.0" stroke-width="3" stroke="black" fill="white"/>
<text x="990.0" y="330.0" font-size="20" style="text-anchor: middle;dominant-baseline: central;">83</text>
<line x1="1015.19946" y1="192.99867" x2="1024.8005" y2="217.00133" style="stroke:black;stroke-width:3"/>
<circle cx="1030.0" cy="230.0" r="14.0" stroke-width="3" stroke="black" fill="white"/>
<text x="1030.0" y="230.0" font-size="20" style="text-anchor: middle;dominant-baseline: central;">86</text>
<line x1="1029.8995" y1="89.8995" x2="1060.1005" y2="120.1005" style="stroke:black;stroke-width:3"/>
<circle cx="1070.0" cy="130.0" r="14.0" stroke-width="3" stroke="black" fill="white"/>
<text x="1070.0" y="130.0" font-size="20" style="text-anchor: middle;dominant-baseline: central;">88</text>
<line x1="1075.1995" y1="142.99867" x2="1084.8005" y2="167.00133" style="stroke:black;stroke-width:3"/>
<circle cx="1090.0" cy="180.0" r="14.0" stroke-width="3" stroke="black" fill="white"/>
<text x="1090.0" y="180.0" font-size="20" style="text-anchor: middle;dominant-baseline: central;">99</text>
<line x1="1084.8005" y1="192.99867" x2="1075.1995" y2="217.00133" style="stroke:black;stroke-width:3"/>
<circle cx="1070.0" cy="230.0" r="14.0" stroke-width="3" stroke="black" fill="white"/>
<text x="1070.0" y="230.0" font-size="20" style="text-anchor: middle;dominant-baseline: central;">98</text>
<line x1="1064.8005" y1="242.99867" x2="1055.1995" y2="267.0013" style="stroke:black;stroke-width:3"/>
<circle cx="1050.0" cy="280.0" r="14.0" stroke-width="3" stroke="black" fill="white"/>
<text x="1050.0" y="280.0" font-size="20" style="text-anchor: middle;dominant-baseline: central;">96</text>
<line x1="1044.8005" y1="292.9987" x2="1035.1995" y2="317.0013" style="stroke:black;stroke-width:3"/>
<circle cx="1030.0" cy="330.0" r="14.0" stroke-width="3" stroke="black" fill="white"/>
<text x="1030.0" y="330.0" font-size="20" style="text-anchor: middle;dominant-baseline: central;">89</text>
<line x1="1035.1995" y1="342.9987" x2="1044.8005" y2="367.0013" style="stroke:black;stroke-width:3"/>
<circle cx="1050.0" cy="380.0" r="14.0" stroke-width="3" stroke="black" fill="white"/>
<text x="1050.0" y="380.0" font-size="20" style="text-anchor: middle;dominant-baseline: central;">91</text>
<line x1="1044.8005" y1="392.9987" x2="1035.1995" y2="417.0013" style="stroke:black;stroke-width:3"/>
<circle cx="1030.0" cy="430.0" r="14.0" stroke-width="3" stroke="black" fill="white"/>
<text x="1030.0" y="430.0" font-size="20" style="text-anchor: middle;dominant-baseline: central;">90</text>
<line x1="1055.1995" y1="392.9987" x2="1064.8005" y2="417.0013" style="stroke:black;stroke-width:3"/>
<circle cx="1070.0" cy="430.0" r="14.0" stroke-width="3" stroke="black" fill="white"/>
<text x="1070.0" y="430.0" font-size="20" style="text-anchor: middle;dominant-baseline: central;">94</text>
<line x1="1064.8005" y1="442.9987" x2="1055.1995" y2="467.0013" style="stroke:black;stroke-width:3"/>
<circle cx="1050.0" cy="480.0" r="14.0" stroke-width="3" stroke="black" fill="white"/>
<text x="1050.0" y="480.0" font-size="20" style="text-anchor: middle;dominant-baseline: central;">93</text>
<line x1="1044.8005" y1="492.9987" x2="1035.1995" y2="517.00134" style="stroke:black;stroke-width:3"/>
<circle cx="1030.0" cy="530.0" r="14.0" stroke-width="3" stroke="black" fill="white"/>
<text x="1030.0" y="530.0" font-size="20" style="text-anchor: middle;dominant-baseline: central;">92</text>
<line x1="1075.1995" y1="442.9987" x2="1084.8005" y2="467.0013" style="stroke:black;stroke-width:3"/>
<circle cx="1090.0" cy="480.0" r="14.0" stroke-width="3" stroke="black" fill="white"/>
<text x="1090.0" y="480.0" font-size="20" style="text-anchor: middle;dominant-baseline: central;">95</text>
<line x1="1055.1995" y1="292.9987" x2="1064.8005" y2="317.0013" style="stroke:black;stroke-width:3"/>
<circle cx="1070.0" cy="330.0" r="14.0" stroke-width="3" stroke="black" fill="white"/>
<text x="1070.0" y="330.0" font-size="20" style="text-anchor: middle;dominant-baseline: central;">97</text>
</svg>

